<?xml version="1.0" encoding="UTF-8" standalone="no"?>
<!-- Generator: Adobe Illustrator 17.1.0, SVG Export Plug-In . SVG Version: 6.00 Build 0)  -->

<svg
   version="1.1"
   id="Capa_1"
   x="0px"
   y="0px"
   viewBox="0 0 61 61"
   style="enable-background:new 0 0 214.633 214.633;"
   xml:space="preserve"
   sodipodi:docname="art-tools.svg"
   inkscape:version="1.1.1 (3bf5ae0d25, 2021-09-20)"
   xmlns:inkscape="http://www.inkscape.org/namespaces/inkscape"
   xmlns:sodipodi="http://sodipodi.sourceforge.net/DTD/sodipodi-0.dtd"
   xmlns="http://www.w3.org/2000/svg"
   xmlns:svg="http://www.w3.org/2000/svg"><defs
   id="defs37" /><sodipodi:namedview
   id="namedview35"
   pagecolor="#ffffff"
   bordercolor="#666666"
   borderopacity="1.0"
   inkscape:pageshadow="2"
   inkscape:pageopacity="0.0"
   inkscape:pagecheckerboard="0"
   showgrid="false"
   inkscape:zoom="8.032316"
   inkscape:cx="-0.20683643"
   inkscape:cy="47.197658"
   inkscape:window-width="1920"
   inkscape:window-height="1051"
   inkscape:window-x="-9"
   inkscape:window-y="-9"
   inkscape:window-maximized="1"
   inkscape:current-layer="Capa_1"
   inkscape:rotation="3" />
<path
   d="m 39.425125,33.590322 7.594123,-9.03881 c 1.793884,-0.0068 5.222153,-0.48882 8.320549,-3.587218 6.288519,-6.288246 1.166528,-18.1734216 0.945524,-18.6763942 -0.247948,-0.5636667 -0.844005,-0.8902723 -1.452579,-0.7955567 -0.608847,0.093627 -1.079159,0.5859848 -1.146112,1.1983703 -0.0052,0.046541 -0.544887,4.6739977 -3.411669,4.9728416 -0.349193,0.036199 -0.679611,0.05389 -1.010299,0.05389 -0.827945,0 -1.472447,-0.1129512 -2.095718,-0.2220921 -0.551419,-0.096349 -1.072627,-0.1875258 -1.642554,-0.1875258 -1.260152,0 -2.408172,0.4754831 -3.722486,1.5421224 -2.699125,2.1904345 -3.048592,5.9801475 -3.057028,7.7149675 l -8.8834,7.463753 -9.735567,-9.735567 c -0.0046,-0.0046 -0.01034,-0.0079 -0.01524,-0.01252 -0.0528,-0.05117 -0.11023,-0.09798 -0.171196,-0.14044 -0.01116,-0.0079 -0.02177,-0.01633 -0.0332,-0.02368 -0.05226,-0.03402 -0.106147,-0.06559 -0.163303,-0.09254 L 10.096219,9.4816593 6.2240385,7.6586561 C 5.7041913,7.4134296 5.0871791,7.5214818 4.6816437,7.9278335 c -0.045725,0.045997 -0.08655,0.09526 -0.1246544,0.1461559 -0.00408,0.00517 -0.00898,0.0098 -0.013064,0.015242 -0.024223,0.033205 -0.043275,0.069132 -0.064232,0.1042416 -0.014697,0.024767 -0.032116,0.048174 -0.045453,0.073758 -0.012792,0.025041 -0.021229,0.05144 -0.032661,0.077025 -0.016602,0.03756 -0.034838,0.074575 -0.04763,0.1132233 -0.00735,0.021774 -0.010887,0.044636 -0.016875,0.066954 -0.012248,0.04382 -0.025584,0.087367 -0.033477,0.1322753 -0.00408,0.023407 -0.00408,0.047086 -0.0068,0.070765 -0.00544,0.044636 -0.011976,0.089 -0.013064,0.1339081 -5.444e-4,0.021774 0.00299,0.043547 0.00354,0.065321 0.00136,0.047086 0.00163,0.093899 0.00762,0.1409847 0.00272,0.020141 0.00898,0.040009 0.01252,0.06015 0.00844,0.048174 0.01633,0.096621 0.030483,0.1439787 0.00653,0.022589 0.017419,0.044092 0.02504,0.06641 0.015514,0.044092 0.029667,0.088728 0.049807,0.1317306 L 10.778281,22.991153 c 0.02613,0.05525 0.05634,0.10778 0.089,0.158676 0.0068,0.01034 0.0147,0.01987 0.0215,0.03021 0.04409,0.06423 0.09308,0.124655 0.146973,0.179906 0.0044,0.0044 0.0071,0.0095 0.01116,0.01388 l 10.727357,10.727362 c -3.883885,4.09155 -7.888613,8.672736 -10.984562,12.592548 -2.0848317,2.639789 -3.6571647,4.840839 -4.6726361,6.542455 -1.1240672,1.882879 -2.0042692,3.785358 -0.8448194,4.94508 0.2484923,0.248219 0.692948,0.544342 1.4000488,0.544342 3.5044777,0 15.0848217,-9.853691 22.6773117,-17.04881 l 17.817965,17.817967 c 0.265912,0.265909 0.61402,0.39873 0.962399,0.39873 0.348378,0 0.696486,-0.132821 0.962398,-0.39873 l 2.615564,-2.615567 -36.120393,-36.121486 1.924523,-1.924523 36.120942,36.12067 2.615837,-2.61584 c 0.531551,-0.531278 0.531551,-1.392973 0,-1.924251 z m -27.008918,-13.510041 -2.382315,-5.060752 1.739719,-1.73972 5.060753,2.382316 z m 19.37887,5.879717 8.162688,-6.858172 4.393934,4.393933 -6.858172,8.162688 z"
   id="path2"
   style="fill:#b0e0e4;fill-opacity:1;stroke:#000000;stroke-width:0.05;stroke-miterlimit:4;stroke-dasharray:none;stroke-opacity:1" />
<g
   id="g4">
</g>
<g
   id="g6">
</g>
<g
   id="g8">
</g>
<g
   id="g10">
</g>
<g
   id="g12">
</g>
<g
   id="g14">
</g>
<g
   id="g16">
</g>
<g
   id="g18">
</g>
<g
   id="g20">
</g>
<g
   id="g22">
</g>
<g
   id="g24">
</g>
<g
   id="g26">
</g>
<g
   id="g28">
</g>
<g
   id="g30">
</g>
<g
   id="g32">
</g>
<path
   style="fill:#feb0c6;stroke:#000000;stroke-width:0.00622485;stroke-miterlimit:4;stroke-dasharray:none;fill-opacity:1"
   d="M 11.316849,17.488214 10.183243,15.06788 10.96994,14.225769 c 0.432683,-0.463161 0.822579,-0.821904 0.866435,-0.797206 0.04386,0.0247 1.143739,0.539808 2.444182,1.144691 l 2.364442,1.099788 -0.598843,0.615426 c -0.329363,0.338484 -1.273136,1.291473 -2.097272,2.117753 l -1.498429,1.502327 z"
   id="path1835" /><path
   style="fill:#feb0c6;stroke:#000000;stroke-width:0.00622485;stroke-miterlimit:4;stroke-dasharray:none;fill-opacity:1"
   d="m 34.705141,28.717127 -2.766004,-2.763325 0.420461,-0.333833 c 0.231253,-0.183607 2.024976,-1.689575 3.986051,-3.346594 l 3.565589,-3.012761 0.79,0.748746 c 0.434499,0.411811 1.405546,1.36725 2.157881,2.123198 l 1.367881,1.374451 -3.287499,3.899613 c -1.808125,2.144787 -3.328193,3.938812 -3.377928,3.986722 -0.04974,0.04791 -1.33513,-1.156388 -2.856432,-2.676217 z"
   id="path1874" /><path
   style="fill:none;stroke:#000000;stroke-width:0.01;stroke-linecap:butt;stroke-linejoin:miter;stroke-opacity:1;stroke-miterlimit:4;stroke-dasharray:none"
   d="m 51.70794,56.879202 1.925072,-1.925339"
   id="path2144" /></svg>
