<?xml version="1.0" encoding="UTF-8" standalone="no"?>
<svg
   version="1.0"
   width="0px"
   height="0px"
   viewBox="0 0 61 61"
   style="enable-background:new 0 0 60.002 60.002;"
   preserveAspectRatio="xMidYMid meet"
   id="svg14"
   sodipodi:docname="gears.svg"
   inkscape:version="1.1.1 (3bf5ae0d25, 2021-09-20)"
   xmlns:inkscape="http://www.inkscape.org/namespaces/inkscape"
   xmlns:sodipodi="http://sodipodi.sourceforge.net/DTD/sodipodi-0.dtd"
   xmlns="http://www.w3.org/2000/svg"
   xmlns:svg="http://www.w3.org/2000/svg">
  <defs
     id="defs18" />
  <sodipodi:namedview
     id="namedview16"
     pagecolor="#ffffff"
     bordercolor="#666666"
     borderopacity="1.0"
     inkscape:pageshadow="2"
     inkscape:pageopacity="0.0"
     inkscape:pagecheckerboard="0"
     inkscape:document-units="pt"
     showgrid="false"
     inkscape:zoom="8.0812499"
     inkscape:cx="22.459397"
     inkscape:cy="25.429235"
     inkscape:window-width="1920"
     inkscape:window-height="1051"
     inkscape:window-x="-9"
     inkscape:window-y="-9"
     inkscape:window-maximized="1"
     inkscape:current-layer="g12" />
  <metadata
     id="metadata2">
Created by potrace 1.15, written by Peter Selinger 2001-2017
</metadata>
  <g
     transform="translate(0.000000,1280.000000) scale(0.100000,-0.100000)"
     fill="#000000"
     stroke="none"
     id="g12">
    <path
       d="m 422.6229,12797.703 c -9.57884,-0.895 -11.89097,-1.132 -12.45721,-1.368 -0.99091,-0.377 -3.16149,-18.922 -3.96366,-33.88 l -0.33031,-6.087 -5.1905,-1.274 c -2.83118,-0.708 -6.79484,-1.934 -8.72948,-2.736 -4.95458,-2.029 -15.90182,-7.267 -18.733,-9.013 -1.32123,-0.803 -2.50088,-1.463 -2.59525,-1.463 -0.14156,0 -7.12515,5.663 -15.52434,12.552 -8.39917,6.889 -15.5715,12.645 -15.85463,12.786 -1.13246,0.473 -10.80569,-7.738 -18.02519,-15.24 -6.9364,-7.173 -14.86372,-17.082 -14.29749,-17.789 2.02902,-2.69 9.76758,-12.222 16.37367,-20.148 4.43553,-5.333 8.25763,-9.957 8.44637,-10.288 0.18875,-0.377 -0.42467,-1.793 -1.60432,-3.679 -3.1615,-5.003 -6.84205,-12.789 -8.49357,-17.885 -0.84934,-2.596 -2.02901,-6.228 -2.64243,-8.116 -0.61343,-1.84 -1.13248,-3.681 -1.13248,-4.057 0,-0.52 -0.89654,-0.756 -3.39742,-0.992 -18.40269,-1.699 -36.09759,-3.727 -36.56946,-4.246 -1.46277,-1.416 -2.4065,-20.385 -1.60433,-30.625 0.56623,-7.125 1.65152,-14.863 2.17057,-15.335 0.18875,-0.236 14.10873,-1.604 35.72011,-3.634 l 3.63335,-0.329 0.28312,-1.936 c 0.18875,-1.085 0.70779,-2.924 1.17966,-4.105 0.47186,-1.179 1.60434,-4.577 2.54806,-7.597 1.84027,-5.709 5.66237,-13.826 8.82386,-18.543 1.0381,-1.559 1.79308,-3.067 1.65152,-3.445 -0.14155,-0.331 -3.91647,-5.002 -8.44636,-10.381 -12.45721,-14.912 -16.42087,-19.961 -16.04338,-20.575 1.60433,-2.83 9.20136,-11.748 14.53341,-17.128 7.03077,-7.077 18.0252,-16.231 18.54427,-15.476 0.18874,0.282 4.67145,4.058 10.00351,8.445 5.33206,4.389 11.79661,9.769 14.39185,11.986 2.59526,2.266 5.04894,4.342 5.52081,4.672 0.66061,0.518 1.55715,0.188 6.13423,-2.406 6.32299,-3.587 14.10874,-6.796 21.65857,-8.824 2.97274,-0.803 5.70954,-1.652 5.99266,-1.842 0.37749,-0.235 1.08528,-5.142 1.98183,-14.249 1.41559,-13.825 2.68964,-24.726 3.01993,-25.716 0.3775,-0.993 14.62779,-1.747 26.84907,-1.464 9.7204,0.236 19.20487,1.133 19.95984,1.841 0.0944,0.14 0.94373,8.493 1.84027,18.59 0.94373,10.098 1.79309,19.064 1.93464,19.913 0.28312,1.793 0.18875,1.746 8.352,4.153 6.84203,2.029 15.94901,6.039 21.46981,9.484 2.21776,1.416 4.24678,2.454 4.5299,2.313 0.28311,-0.101 3.16149,-2.454 6.41734,-5.238 10.94725,-9.437 24.6313,-20.102 25.33911,-19.865 1.27403,0.519 6.51172,4.53 9.43728,7.219 6.08705,5.662 22.79103,24.584 22.79103,25.81 0,0.142 -5.37925,6.655 -11.89098,14.486 -6.5589,7.787 -12.41002,14.771 -12.97626,15.478 l -1.0381,1.274 2.78399,5.38 c 3.72774,7.125 7.36109,16.233 8.91823,22.224 l 1.22686,4.908 8.72948,0.801 c 4.81303,0.425 13.8728,1.275 20.1486,1.842 l 11.41911,1.085 0.28311,1.226 c 0.61344,2.973 1.22685,10.334 1.46278,17.931 0.42468,11.183 -0.80216,27.462 -2.0762,28.265 -0.33031,0.189 -9.29572,1.133 -20.00703,2.124 -10.71132,0.99 -19.62955,1.886 -19.8183,1.981 -0.18875,0.101 -0.56622,1.415 -0.84934,2.926 -1.27404,6.464 -5.42645,17.176 -9.7204,25.151 l -3.06712,5.708 1.79308,2.171 c 0.99092,1.228 6.55891,8.069 12.45721,15.242 5.85112,7.172 10.80569,13.259 10.99443,13.59 0.37749,0.565 -3.35022,5.33 -9.57884,12.267 -6.88921,7.645 -22.69666,21.281 -23.78195,20.48 -3.91646,-2.974 -18.02521,-14.392 -22.97978,-18.592 -3.53897,-2.926 -6.70046,-5.615 -7.12514,-5.946 -0.56624,-0.472 -2.54806,0.331 -10.80568,4.53 -7.21952,3.587 -11.65505,5.474 -15.33558,6.559 -2.83119,0.85 -5.66237,1.51 -6.22861,1.51 -1.17967,0 -1.17967,-0.142 -2.31214,12.032 -0.80217,9.014 -3.01993,28.69 -3.20867,28.879 -0.37749,0.378 -5.94548,1.085 -11.89097,1.509 -6.13423,0.472 -17.55335,0.567 -21.42263,0.189 z m 21.46981,-98.808 c 10.23945,-1.698 20.14859,-7.126 28.78371,-15.713 8.44636,-8.399 13.63688,-17.648 15.80745,-28.359 4.90739,-23.641 -4.67146,-47.092 -24.53694,-60.21 -9.05978,-5.992 -17.83646,-8.776 -29.06681,-9.249 -10.47539,-0.471 -18.30833,1.133 -27.32094,5.521 -11.27754,5.521 -19.7711,13.826 -25.76378,25.198 -4.52988,8.634 -6.32297,16.185 -6.27578,26.943 0.0472,13.26 3.63335,23.924 11.51347,34.116 10.00352,12.977 23.59321,21.045 37.5132,22.226 5.23769,0.424 15.52432,0.188 19.34642,-0.473 z"
       id="path4"
       style="stroke-width:0.5;stroke-miterlimit:4;stroke-dasharray:none;fill:#b0e0e4;fill-opacity:1;stroke:#000000;stroke-opacity:1" />
    <path
       d="m 422.6229,12690.496 c -17.22303,-3.775 -31.28458,-16.941 -36.66384,-34.304 -1.17966,-3.918 -1.27402,-4.766 -1.27402,-13.166 -0.0473,-9.767 0.18873,-11.23 3.06711,-18.686 3.06711,-7.974 11.0888,-17.837 18.78019,-23.027 4.24677,-2.877 10.09788,-5.52 14.95808,-6.747 6.03987,-1.51 17.55335,-1.51 23.12135,0 6.60609,1.794 11.37192,4.058 16.70398,8.022 15.09965,11.23 22.31917,27.509 20.29016,45.771 -1.27404,11.796 -5.85111,21.139 -14.20311,29.113 -6.32299,6.041 -12.92908,9.91 -21.13951,12.363 -5.61518,1.651 -17.50616,2.029 -23.64039,0.661 z m 18.02521,-12.079 c 10.7585,-2.266 20.76201,-9.863 25.3391,-19.206 0.80216,-1.651 1.93464,-4.766 2.45368,-6.937 0.84936,-3.444 0.99093,-4.954 0.80218,-11.088 -0.18875,-6.228 -0.37749,-7.597 -1.60434,-11.136 -3.58617,-10.711 -14.06155,-20.243 -25.76377,-23.405 -3.58617,-0.99 -13.68406,-1.132 -16.89274,-0.235 -6.9364,1.886 -12.59876,5.19 -17.64771,10.239 -2.12339,2.077 -4.5299,5.002 -5.42644,6.465 -10.47538,17.6 -4.95457,40.674 12.22128,50.867 3.49179,2.028 8.77667,4.104 12.26846,4.671 3.53898,0.614 10.90005,0.473 14.2503,-0.235 z"
       id="path6"
       style="stroke-width:0.5;stroke-miterlimit:4;stroke-dasharray:none;fill:#feb0c6;fill-opacity:1;stroke:#000000;stroke-opacity:1" />
    <path
       d="m 244.06955,12592.678 c -3.53898,-9.012 -7.6442,-20.195 -11.84379,-32.086 l -4.62426,-13.117 h -5.75674 c -10.90007,0 -27.50967,-2.218 -37.18289,-5.003 -3.30304,-0.943 -6.08704,-1.651 -6.18141,-1.557 -0.0472,0.101 -1.69872,2.407 -3.63337,5.143 -6.60609,9.438 -26.89625,37.278 -27.13217,37.278 -0.47187,0 -8.54074,-3.209 -10.33383,-4.153 -1.03809,-0.519 -3.49179,-1.698 -5.42643,-2.643 -1.93464,-0.895 -5.66237,-2.878 -8.25762,-4.435 -2.59525,-1.51 -6.98358,-4.105 -9.76758,-5.756 -4.95457,-2.926 -11.7966,-7.833 -16.137747,-11.56 l -2.170576,-1.936 5.662363,-12.221 c 3.16149,-6.747 8.06888,-17.318 10.94725,-23.499 l 5.23769,-11.23 -3.58617,-3.634 c -9.24854,-9.437 -20.431708,-24.112 -24.20662,-31.851 -0.754981,-1.509 -1.509963,-2.689 -1.745896,-2.689 -0.188745,0 -6.889215,1.133 -14.863717,2.548 -15.524325,2.737 -36.475089,6.087 -36.663834,5.851 -0.377491,-0.377 -4.8602,-11.702 -6.606097,-16.656 -2.406506,-6.89 -6.370165,-26.331 -8.021689,-39.638 l -0.283118,-2.359 23.970694,-9.201 23.970692,-9.201 0.09437,-4.484 c 0.188745,-8.067 1.085287,-17.977 2.076201,-23.074 0.51905,-2.737 1.274033,-6.652 1.651524,-8.634 0.377491,-2.029 1.226847,-5.474 1.84027,-7.692 0.66061,-2.217 1.17966,-4.341 1.17966,-4.718 0,-0.331 -4.388336,-3.775 -9.767585,-7.596 -5.426437,-3.824 -14.769345,-10.571 -20.809204,-15.007 -9.814772,-7.172 -10.947245,-8.162 -10.711314,-9.106 1.038102,-4.153 10.192263,-21.895 16.326497,-31.71 3.491793,-5.474 10.522566,-15.571 12.45721,-17.835 l 1.415591,-1.606 8.25762,3.823 c 8.116062,3.822 34.729195,15.996 37.560385,17.223 l 1.41559,0.66 6.37016,-5.898 c 7.9745,-7.455 11.93816,-10.428 22.74384,-17.034 6.51172,-3.965 8.58793,-5.474 8.49355,-6.135 -0.0472,-0.471 -1.0381,-6.701 -2.21775,-13.825 -2.07621,-12.551 -5.47364,-35.295 -5.47364,-36.476 0,-0.33 0.7078,-0.848 1.55716,-1.226 10.61694,-4.247 20.10141,-7.173 33.73827,-10.382 9.10698,-2.17 22.31918,-4.435 22.79104,-3.915 0.84936,0.943 12.31565,31.095 16.75118,43.835 l 1.79308,5.333 h 7.17233 c 12.36283,0 21.09231,1.226 33.59672,4.813 5.75674,1.604 6.88921,1.793 7.40827,1.273 0.3303,-0.378 7.21951,-10.003 15.33558,-21.422 8.11605,-11.42 14.81652,-20.857 14.9109,-20.904 0.14155,-0.189 4.29396,1.747 17.03428,8.023 5.28488,2.594 11.4663,6.133 16.27932,9.295 6.84202,4.53 15.6187,10.995 17.97802,13.259 0.84935,0.755 0.70779,1.181 -3.8221,11.371 -2.59526,5.805 -7.50265,16.516 -10.85287,23.783 l -6.13423,13.165 5.5208,5.946 c 7.54983,8.021 14.39186,17.364 19.11049,26.046 1.17967,2.266 2.35933,4.2 2.54807,4.294 0.18875,0.101 4.48271,-0.519 9.53166,-1.368 26.37719,-4.436 41.66559,-6.842 42.18464,-6.653 1.03809,0.425 8.39918,21.376 10.42819,29.586 0.37749,1.698 0.94373,3.538 1.17966,4.104 0.42468,0.991 3.44461,18.026 3.96366,22.415 l 0.28312,2.218 -2.26494,0.99 c -2.92556,1.322 -22.64949,8.777 -36.05042,13.684 l -10.7585,3.916 v 7.361 c 0,8.447 -0.47187,13.26 -1.93464,21.14 -0.84935,4.671 -3.16149,14.817 -4.01084,17.694 -0.18875,0.567 2.07619,2.407 8.87105,7.267 10.23944,7.314 32.79455,24.113 33.17202,24.774 0.33032,0.518 -2.87836,8.068 -6.74765,15.76 -5.47362,10.995 -12.55158,22.083 -20.00703,31.473 l -3.63336,4.577 -6.27579,-2.737 c -8.68229,-3.821 -22.64947,-10.239 -32.41706,-14.957 l -8.16325,-3.965 -6.32297,5.994 c -6.70047,6.322 -14.81653,12.645 -20.24297,15.854 -2.83118,1.651 -8.63511,5.474 -9.81477,6.464 -0.18875,0.189 0.51905,5.804 1.55715,12.552 5.28488,33.692 6.18142,39.448 6.03986,39.59 -0.0944,0.04 -3.4446,1.368 -7.45545,2.925 -8.49356,3.303 -18.82737,6.747 -20.33734,6.747 -0.56624,0 -2.21776,0.425 -3.68054,0.897 -3.77491,1.321 -23.02696,5.192 -25.76377,5.238 -0.75498,0 -1.22685,-0.755 -2.31214,-3.398 z m -8.54074,-123.769 c 13.02345,-2.313 26.61313,-8.683 36.4279,-17.129 11.60787,-10.004 21.70575,-28.264 24.44256,-44.167 1.03811,-5.993 0.94374,-16.373 -0.18874,-23.027 -2.0762,-12.031 -7.26671,-24.773 -13.44813,-32.936 -10.90006,-14.486 -29.77462,-25.858 -48.13012,-29.02 -5.37926,-0.896 -15.76027,-0.896 -21.42263,0 -10.75851,1.748 -22.9326,6.135 -30.48242,10.996 -16.79836,10.852 -29.25557,29.491 -33.12486,49.639 -1.13246,5.993 -1.13246,16.893 0,23.358 4.24678,24.017 15.52433,40.674 35.90886,53.132 5.37925,3.302 13.82562,6.7 20.29015,8.257 9.10697,2.17 20.71483,2.501 29.72743,0.897 z"
       id="path8"
       style="fill:#b0e0e4;fill-opacity:1;stroke:#000000;stroke-width:0.5;stroke-miterlimit:4;stroke-dasharray:none;stroke-opacity:1" />
    <path
       d="m 218.54171,12459.377 c -10.14508,-1.179 -15.90182,-2.926 -24.301,-7.267 -16.51524,-8.541 -26.37721,-20.95 -31.37896,-39.542 -2.35931,-8.682 -2.73681,-11.373 -2.784,-18.45 0,-6.701 0.75498,-11.891 2.59526,-17.506 1.13247,-3.492 5.14331,-12.221 5.61518,-12.221 0.14156,0 1.60433,-1.982 3.16149,-4.342 6.98359,-10.522 16.75117,-18.355 28.73653,-23.027 23.87632,-9.343 48.93229,-4.435 67.80684,13.212 8.49356,7.928 15.47715,20.573 17.83646,32.181 3.25587,16.186 0.56625,31.333 -8.16324,45.96 -9.3901,15.808 -21.65856,24.727 -40.48593,29.397 -6.32297,1.558 -13.77843,2.219 -18.63863,1.605 z m 16.27931,-17.648 c 14.72215,-3.681 25.10316,-12.315 32.13394,-26.66 3.20867,-6.653 3.91646,-10.097 3.91646,-19.299 0,-9.39 -0.70779,-12.741 -4.24677,-20.008 -2.59525,-5.425 -5.28487,-9.248 -9.20134,-13.164 -13.68406,-13.448 -29.58587,-17.364 -48.31887,-11.892 -12.1741,3.54 -21.80012,11.939 -28.07592,24.491 -5.99268,11.985 -6.5589,27.038 -1.55715,38.504 4.95457,11.136 13.63687,20.006 24.77286,25.244 10.23945,4.814 19.25205,5.615 30.57679,2.784 z"
       id="path10"
       style="stroke-width:0.5;stroke-miterlimit:4;stroke-dasharray:none;fill:#feb0c6;fill-opacity:1;stroke:#000000;stroke-opacity:1" />
  </g>
</svg>
