<?xml version="1.0" encoding="UTF-8" standalone="no"?>
<!-- Generator: Adobe Illustrator 18.0.0, SVG Export Plug-In . SVG Version: 6.00 Build 0)  -->

<svg
   version="1.1"
   id="Capa_1"
   x="0px"
   y="0px"
   viewBox="0 0 61 61"
   style="enable-background:new 0 0 60.002 60.002;"
   xml:space="preserve"
   sodipodi:docname="light-bulb-svgrepo-com.svg"
   inkscape:version="1.1.1 (3bf5ae0d25, 2021-09-20)"
   xmlns:inkscape="http://www.inkscape.org/namespaces/inkscape"
   xmlns:sodipodi="http://sodipodi.sourceforge.net/DTD/sodipodi-0.dtd"
   xmlns="http://www.w3.org/2000/svg"
   xmlns:svg="http://www.w3.org/2000/svg"><defs
   id="defs41" /><sodipodi:namedview
   id="namedview39"
   pagecolor="#ffffff"
   bordercolor="#666666"
   borderopacity="1.0"
   inkscape:pageshadow="2"
   inkscape:pageopacity="0.0"
   inkscape:pagecheckerboard="0"
   showgrid="false"
   inkscape:zoom="10.158429"
   inkscape:cx="9.6963812"
   inkscape:cy="37.456579"
   inkscape:window-width="1920"
   inkscape:window-height="1051"
   inkscape:window-x="-9"
   inkscape:window-y="-9"
   inkscape:window-maximized="1"
   inkscape:current-layer="g6" />
<g
   id="g6"
   transform="translate(-0.06960789,0.13921577)">
	<path
   d="M 43.669,5.224 C 39.268,1.284 33.588,-0.524 27.661,0.132 18.24,1.177 10.655,8.777 9.626,18.205 c -0.699,6.407 1.553,12.626 6.179,17.062 2.984,2.861 4.696,6.799 4.696,10.803 v 1.933 2 2 4 h 2.5 l 3,4 h 7 l 3,-4 h 2.5 v -4 -2 -2 -1 c 0,-4.218 1.862,-8.29 5.108,-11.173 4.38,-3.889 6.892,-9.476 6.892,-15.327 0,-5.824 -2.49,-11.394 -6.832,-15.279 z M 32.001,58.002 h -5 l -1.5,-2 h 8 z m 4.5,-4 h -14 v -2 h 14 z m 0,-4 h -14 v -2 h 4 6 4 z m -8,-11 h 2 v 7 h -2 z m 13.78,-4.669 c -3.417,3.034 -5.479,7.242 -5.75,11.669 H 32.5 v -8 c 0,-7.383 1.57,-10 6,-10 0.552,0 1,-0.447 1,-1 0,-0.553 -0.448,-1 -1,-1 -7.37,0 -7.949,6.871 -7.995,11 h -2.011 c -0.046,-4.129 -0.625,-11 -7.995,-11 -0.552,0 -1,0.447 -1,1 0,0.553 0.448,1 1,1 4.43,0 6,2.617 6,10 v 8 h -4 C 22.48,41.48 20.546,37.044 17.187,33.823 13.013,29.82 10.981,24.207 11.612,18.422 12.542,9.918 19.384,3.063 27.882,2.12 c 5.351,-0.592 10.481,1.038 14.453,4.593 3.918,3.508 6.166,8.534 6.166,13.789 0,5.281 -2.267,10.322 -6.22,13.831 z"
   id="path2"
   style="fill:#b0e0e4;fill-opacity:1;stroke:#000000;stroke-opacity:1;stroke-width:0.25;stroke-miterlimit:4;stroke-dasharray:none" />
	<path
   d="m 42.029,21.152 c -0.468,-0.29 -1.085,-0.148 -1.377,0.321 -0.613,0.985 -1.376,1.528 -2.151,1.528 -0.775,0 -1.538,-0.543 -2.151,-1.528 -0.005,-0.008 -0.014,-0.012 -0.019,-0.021 -0.037,-0.056 -0.091,-0.099 -0.14,-0.148 -0.047,-0.046 -0.087,-0.097 -0.141,-0.133 -0.009,-0.006 -0.013,-0.015 -0.022,-0.02 -0.044,-0.027 -0.094,-0.032 -0.14,-0.052 -0.066,-0.028 -0.128,-0.06 -0.198,-0.073 -0.063,-0.012 -0.125,-0.007 -0.188,-0.007 -0.065,0 -0.128,-0.006 -0.193,0.007 -0.071,0.014 -0.134,0.046 -0.201,0.075 -0.045,0.02 -0.093,0.024 -0.136,0.051 -0.008,0.005 -0.012,0.014 -0.02,0.019 -0.056,0.037 -0.099,0.09 -0.147,0.138 -0.047,0.047 -0.099,0.088 -0.134,0.143 -0.005,0.008 -0.014,0.012 -0.02,0.021 -0.613,0.985 -1.376,1.528 -2.151,1.528 -0.775,0 -1.538,-0.543 -2.151,-1.528 -0.005,-0.008 -0.014,-0.012 -0.019,-0.021 -0.037,-0.056 -0.091,-0.099 -0.14,-0.148 -0.047,-0.046 -0.087,-0.097 -0.141,-0.133 -0.009,-0.006 -0.013,-0.015 -0.022,-0.02 -0.044,-0.027 -0.094,-0.032 -0.14,-0.052 -0.066,-0.028 -0.128,-0.06 -0.198,-0.073 -0.063,-0.012 -0.125,-0.007 -0.188,-0.007 -0.065,0 -0.128,-0.006 -0.193,0.007 -0.071,0.014 -0.134,0.046 -0.201,0.075 -0.045,0.02 -0.093,0.024 -0.136,0.051 -0.008,0.005 -0.012,0.014 -0.02,0.019 -0.056,0.037 -0.099,0.09 -0.147,0.138 -0.047,0.047 -0.099,0.088 -0.134,0.143 -0.005,0.008 -0.014,0.012 -0.02,0.021 -0.613,0.985 -1.376,1.528 -2.151,1.528 -0.775,0 -1.538,-0.543 -2.151,-1.528 -0.005,-0.008 -0.014,-0.012 -0.019,-0.021 -0.037,-0.056 -0.091,-0.099 -0.14,-0.148 -0.047,-0.046 -0.087,-0.097 -0.141,-0.133 -0.009,-0.006 -0.013,-0.015 -0.022,-0.02 -0.044,-0.027 -0.094,-0.032 -0.14,-0.052 -0.066,-0.028 -0.128,-0.06 -0.198,-0.073 -0.063,-0.012 -0.125,-0.007 -0.188,-0.007 -0.065,0 -0.128,-0.006 -0.193,0.007 -0.071,0.014 -0.134,0.046 -0.201,0.075 -0.045,0.02 -0.093,0.024 -0.136,0.051 -0.008,0.005 -0.012,0.014 -0.02,0.019 -0.056,0.037 -0.099,0.09 -0.147,0.138 -0.047,0.047 -0.099,0.088 -0.134,0.143 -0.005,0.008 -0.014,0.012 -0.02,0.021 -0.613,0.985 -1.376,1.528 -2.151,1.528 -0.775,0 -1.538,-0.543 -2.151,-1.528 -0.292,-0.469 -0.909,-0.612 -1.377,-0.321 -0.469,0.292 -0.613,0.908 -0.321,1.378 0.991,1.594 2.358,2.472 3.849,2.472 1.102,0 2.135,-0.482 3,-1.376 0.865,0.894 1.898,1.376 3,1.376 1.102,0 2.135,-0.482 3,-1.376 0.865,0.894 1.898,1.376 3,1.376 1.102,0 2.135,-0.482 3,-1.376 0.865,0.894 1.898,1.376 3,1.376 1.491,0 2.858,-0.878 3.849,-2.472 0.294,-0.469 0.151,-1.086 -0.318,-1.378 z"
   id="path4"
   style="fill:#b0e0e4;fill-opacity:1;stroke:#000000;stroke-opacity:1;stroke-width:0.25;stroke-miterlimit:4;stroke-dasharray:none" />
</g>
<g
   id="g8">
</g>
<g
   id="g10">
</g>
<g
   id="g12">
</g>
<g
   id="g14">
</g>
<g
   id="g16">
</g>
<g
   id="g18">
</g>
<g
   id="g20">
</g>
<g
   id="g22">
</g>
<g
   id="g24">
</g>
<g
   id="g26">
</g>
<g
   id="g28">
</g>
<g
   id="g30">
</g>
<g
   id="g32">
</g>
<g
   id="g34">
</g>
<g
   id="g36">
</g>
</svg>
