<?xml version="1.0" encoding="UTF-8" standalone="no"?>
<svg
   fill="#000000"
   viewBox="0 0 50 50"
   width="61px"
   height="61px"
   version="1.1"
   id="svg8"
   sodipodi:docname="icons8-lock.svg"
   inkscape:version="1.1.1 (3bf5ae0d25, 2021-09-20)"
   xmlns:inkscape="http://www.inkscape.org/namespaces/inkscape"
   xmlns:sodipodi="http://sodipodi.sourceforge.net/DTD/sodipodi-0.dtd"
   xmlns="http://www.w3.org/2000/svg"
   xmlns:svg="http://www.w3.org/2000/svg">
  <defs
     id="defs12" />
  <sodipodi:namedview
     id="namedview10"
     pagecolor="#ffffff"
     bordercolor="#666666"
     borderopacity="1.0"
     inkscape:pageshadow="2"
     inkscape:pageopacity="0.0"
     inkscape:pagecheckerboard="0"
     showgrid="false"
     inkscape:zoom="14.131148"
     inkscape:cx="30.464617"
     inkscape:cy="30.535383"
     inkscape:window-width="1920"
     inkscape:window-height="1051"
     inkscape:window-x="-9"
     inkscape:window-y="-9"
     inkscape:window-maximized="1"
     inkscape:current-layer="svg8" />
  <path
     fill="none"
     stroke="#000000"
     stroke-linecap="round"
     stroke-miterlimit="10"
     stroke-width="2"
     d="M36,21c0,0,0-4.9,0-6c0-6.1-4.9-11-11-11c-6.1,0-11,4.9-11,11c0,1.1,0,6,0,6"
     id="path2"
     style="stroke:#30343f;stroke-opacity:1" />
  <path
     fill="none"
     d="M0 0H50V50H0z"
     id="path4" />
  <path
     d="M41,20H9c-1.7,0-3,1.3-3,3v24c0,1.7,1.3,3,3,3h32c1.7,0,3-1.3,3-3V23C44,21.3,42.7,20,41,20z M27,35.2V38c0,1.1-0.9,2-2,2s-2-0.9-2-2v-2.8c-0.6-0.5-1-1.3-1-2.2c0-1.7,1.3-3,3-3c1.7,0,3,1.3,3,3C28,33.9,27.6,34.7,27,35.2z"
     id="path6"
     style="fill:#30343f;fill-opacity:1" />
</svg>
